<svg width="218" height="132" viewBox="0 0 218 132" fill="none" xmlns="http://www.w3.org/2000/svg">
<path d="M99.1514 9.19192C99.1514 4.11536 94.742 0 89.3029 0C83.8637 0 79.4544 4.11536 79.4544 9.19192V122.121C79.4544 127.198 83.8637 131.313 89.3029 131.313C94.742 131.313 99.1514 127.198 99.1514 122.121V9.19192Z" fill="#5C4CE8"/>
<path d="M138.545 9.19192C138.545 4.11536 134.136 0 128.697 0C123.258 0 118.848 4.11536 118.848 9.19192V122.121C118.848 127.198 123.258 131.313 128.697 131.313C134.136 131.313 138.545 127.198 138.545 122.121V9.19192Z" fill="#5C4CE8"/>
<path d="M59.7574 31.7778C59.7574 28.7318 55.3481 26.2626 49.9089 26.2626C44.4698 26.2626 40.0604 28.7318 40.0604 31.7778V99.5353C40.0604 102.581 44.4698 105.05 49.9089 105.05C55.3481 105.05 59.7574 102.581 59.7574 99.5353V31.7778Z" fill="#5C4CE8"/>
<path d="M177.939 31.7778C177.939 28.7318 173.53 26.2626 168.091 26.2626C162.652 26.2626 158.242 28.7318 158.242 31.7778V99.5353C158.242 102.581 162.652 105.05 168.091 105.05C173.53 105.05 177.939 102.581 177.939 99.5353V31.7778Z" fill="#5C4CE8"/>
<path d="M20.3635 43.0707C20.3635 41.0401 15.9542 39.3939 10.515 39.3939C5.07582 39.3939 0.666504 41.0401 0.666504 43.0707V88.2424C0.666504 90.273 5.07582 91.9192 10.515 91.9192C15.9542 91.9192 20.3635 90.273 20.3635 88.2424V43.0707Z" fill="#5C4CE8"/>
<path d="M217.333 43.0707C217.333 41.0401 212.924 39.3939 207.485 39.3939C202.046 39.3939 197.636 41.0401 197.636 43.0707V88.2424C197.636 90.273 202.046 91.9192 207.485 91.9192C212.924 91.9192 217.333 90.273 217.333 88.2424V43.0707Z" fill="#5C4CE8"/>
</svg>
