<svg width="126" height="29" viewBox="0 0 126 29" fill="none" xmlns="http://www.w3.org/2000/svg">
<g clip-path="url(#clip0_124_781)">
<path d="M38.2535 21.326H33.5135L32.3735 24.686H30.3635L34.8535 12.256H36.9335L41.4235 24.686H39.3835L38.2535 21.326ZM34.0035 19.776H37.7635L35.9135 14.326H35.8635L34.0035 19.776Z" fill="white"/>
<path d="M51.1135 20.156C51.1135 22.976 49.6035 24.786 47.3335 24.786C46.0435 24.786 45.0135 24.206 44.4835 23.206H44.4435V27.696H42.5835V15.626H44.3835V17.136H44.4135C44.9335 16.166 46.0335 15.536 47.3035 15.536C49.5935 15.526 51.1135 17.346 51.1135 20.156ZM49.1935 20.156C49.1935 18.326 48.2435 17.116 46.8035 17.116C45.3835 17.116 44.4235 18.346 44.4235 20.156C44.4235 21.986 45.3835 23.206 46.8035 23.206C48.2535 23.206 49.1935 22.006 49.1935 20.156Z" fill="white"/>
<path d="M61.0735 20.156C61.0735 22.976 59.5635 24.786 57.2935 24.786C56.0035 24.786 54.9735 24.206 54.4435 23.206H54.4035V27.696H52.5435V15.626H54.3435V17.136H54.3735C54.8935 16.166 55.9935 15.536 57.2635 15.536C59.5535 15.526 61.0735 17.346 61.0735 20.156ZM59.1635 20.156C59.1635 18.326 58.2135 17.116 56.7735 17.116C55.3535 17.116 54.3935 18.346 54.3935 20.156C54.3935 21.986 55.3535 23.206 56.7735 23.206C58.2135 23.206 59.1635 22.006 59.1635 20.156Z" fill="white"/>
<path d="M62.5735 12.256H64.4335V24.686H62.5735C62.5735 24.686 62.5735 12.256 62.5735 12.256Z" fill="white"/>
<path d="M74.1135 22.026C73.8635 23.666 72.2635 24.796 70.2135 24.796C67.5735 24.796 65.9435 23.026 65.9435 20.196C65.9435 17.356 67.5935 15.506 70.1335 15.506C72.6435 15.506 74.2135 17.226 74.2135 19.976V20.616H67.8135V20.726C67.8135 22.276 68.7835 23.296 70.2535 23.296C71.2835 23.296 72.0935 22.806 72.3435 22.026H74.1135ZM67.8235 19.316H72.3535C72.3135 17.926 71.4235 17.016 70.1335 17.016C68.8535 17.016 67.9235 17.946 67.8235 19.316Z" fill="white"/>
<path d="M90.2635 24.686V15.536H90.2035L86.4535 24.586H85.0235L81.2635 15.536H81.2035V24.686H79.4435V12.256H81.6735L85.6935 22.066H85.7635L89.7735 12.256H92.0135V24.686H90.2635Z" fill="white"/>
<path d="M101.934 24.686H100.154V23.126H100.114C99.5935 24.216 98.6935 24.786 97.3035 24.786C95.3335 24.786 94.1235 23.516 94.1235 21.436V15.626H95.9835V21.076C95.9835 22.456 96.6335 23.186 97.9235 23.186C99.2635 23.186 100.074 22.256 100.074 20.846V15.626H101.934C101.934 15.626 101.934 24.686 101.934 24.686Z" fill="white"/>
<path d="M107.223 15.526C109.233 15.526 110.673 16.636 110.713 18.236H108.963C108.883 17.436 108.203 16.946 107.173 16.946C106.163 16.946 105.493 17.416 105.493 18.116C105.493 18.656 105.943 19.016 106.883 19.256L108.403 19.606C110.233 20.046 110.913 20.716 110.913 22.046C110.913 23.686 109.363 24.806 107.153 24.806C105.013 24.806 103.583 23.716 103.443 22.056H105.283C105.413 22.926 106.113 23.396 107.243 23.396C108.353 23.396 109.053 22.936 109.053 22.216C109.053 21.656 108.713 21.356 107.763 21.116L106.143 20.716C104.503 20.316 103.683 19.486 103.683 18.226C103.673 16.616 105.113 15.526 107.223 15.526Z" fill="white"/>
<path d="M112.363 13.236C112.363 12.646 112.843 12.166 113.443 12.166C114.043 12.166 114.533 12.636 114.533 13.236C114.533 13.826 114.053 14.296 113.443 14.296C112.853 14.296 112.363 13.826 112.363 13.236ZM112.513 15.626H114.373V24.686H112.513V15.626Z" fill="white"/>
<path d="M122.384 18.746C122.224 17.786 121.474 17.076 120.244 17.076C118.814 17.076 117.864 18.276 117.864 20.156C117.864 22.086 118.824 23.246 120.254 23.246C121.404 23.246 122.164 22.666 122.374 21.616H124.164C123.954 23.516 122.434 24.796 120.234 24.796C117.654 24.796 115.964 23.026 115.964 20.156C115.964 17.336 117.654 15.516 120.214 15.516C122.544 15.516 123.984 16.976 124.144 18.746H122.384Z" fill="white"/>
<path d="M34.7335 8.446H30.9535V2.386H31.8935V7.576H34.7335V8.446Z" fill="white"/>
<path d="M35.8235 2.516C35.8235 2.206 36.0735 1.966 36.4035 1.966C36.7435 1.966 36.9835 2.206 36.9835 2.516C36.9835 2.826 36.7335 3.066 36.4035 3.066C36.0735 3.066 35.8235 2.836 35.8235 2.516ZM35.9635 3.876H36.8635V8.446H35.9635V3.876Z" fill="white"/>
<path d="M39.9835 3.786C41.0135 3.786 41.6835 4.266 41.7735 5.066H40.9135C40.8335 4.726 40.5035 4.516 39.9935 4.516C39.4935 4.516 39.1135 4.756 39.1135 5.116C39.1135 5.386 39.3435 5.566 39.8435 5.676L40.6035 5.856C41.4735 6.056 41.8835 6.436 41.8835 7.106C41.8835 7.966 41.0835 8.546 39.9935 8.546C38.9035 8.546 38.1935 8.056 38.1135 7.246H39.0135C39.1235 7.596 39.4635 7.816 40.0135 7.816C40.5735 7.816 40.9735 7.566 40.9735 7.196C40.9735 6.926 40.7635 6.746 40.3035 6.636L39.5035 6.456C38.6335 6.246 38.2335 5.856 38.2335 5.176C38.2035 4.356 38.9435 3.786 39.9835 3.786Z" fill="white"/>
<path d="M44.2535 2.736V3.896H45.2435V4.656H44.2535V7.006C44.2535 7.486 44.4535 7.696 44.9035 7.696C45.0435 7.696 45.1235 7.686 45.2435 7.676V8.426C45.0935 8.456 44.9235 8.476 44.7535 8.476C43.7535 8.476 43.3535 8.126 43.3535 7.246V4.656H42.6235V3.896H43.3535V2.736H44.2535Z" fill="white"/>
<path d="M50.2435 7.206C50.0335 8.026 49.3035 8.526 48.2635 8.526C46.9535 8.526 46.1535 7.626 46.1535 6.166C46.1535 4.706 46.9735 3.776 48.2635 3.776C49.5335 3.776 50.3035 4.646 50.3035 6.076V6.406H47.0735V6.456C47.1035 7.256 47.5735 7.766 48.2935 7.766C48.8435 7.766 49.2135 7.566 49.3835 7.216L50.2435 7.206ZM47.0735 5.736H49.3835C49.3635 5.016 48.9235 4.556 48.2635 4.556C47.6035 4.556 47.1235 5.026 47.0735 5.736Z" fill="white"/>
<path d="M51.5035 3.87601H52.3735V4.60601H52.4435C52.6635 4.09601 53.1135 3.79601 53.8035 3.79601C54.8235 3.79601 55.3835 4.40601 55.3835 5.49601V8.45601H54.4835V5.70601C54.4835 4.97601 54.1635 4.60601 53.4935 4.60601C52.8235 4.60601 52.4035 5.04601 52.4035 5.76601V8.43601H51.5035C51.5035 8.43601 51.5035 3.87601 51.5035 3.87601Z" fill="white"/>
<path d="M59.0235 6.156C59.0235 4.686 59.8435 3.786 61.1835 3.786C62.5135 3.786 63.3335 4.686 63.3335 6.156C63.3335 7.636 62.5135 8.536 61.1835 8.536C59.8435 8.526 59.0235 7.636 59.0235 6.156ZM62.4035 6.156C62.4035 5.166 61.9535 4.586 61.1735 4.586C60.3835 4.586 59.9435 5.166 59.9435 6.156C59.9435 7.156 60.3835 7.726 61.1735 7.726C61.9635 7.726 62.4035 7.146 62.4035 6.156Z" fill="white"/>
<path d="M64.5435 3.87601H65.4135V4.60601H65.4835C65.7035 4.09601 66.1535 3.79601 66.8435 3.79601C67.8635 3.79601 68.4235 4.40601 68.4235 5.49601V8.45601H67.5235V5.70601C67.5235 4.97601 67.2035 4.60601 66.5335 4.60601C65.8635 4.60601 65.4435 5.04601 65.4435 5.76601V8.43601H64.5435C64.5435 8.43601 64.5435 3.87601 64.5435 3.87601Z" fill="white"/>
<path fill-rule="evenodd" clip-rule="evenodd" d="M25.2435 8.77601C25.2435 8.47601 25.2435 8.17601 25.2435 7.87601C25.2435 7.62601 25.2435 7.36601 25.2335 7.11601C25.2235 6.56601 25.1835 6.00601 25.0835 5.46601C24.9835 4.91601 24.8235 4.39601 24.5635 3.89601C24.3135 3.40601 23.9835 2.94601 23.5935 2.55601C23.2035 2.16601 22.7535 1.83601 22.2535 1.58601C21.7535 1.32601 21.2335 1.16601 20.6835 1.06601C20.1335 0.966006 19.5835 0.936006 19.0335 0.916006C18.7835 0.916006 18.5335 0.906006 18.2735 0.906006C17.9735 0.906006 17.6735 0.906006 17.3735 0.906006H7.9535C7.6535 0.906006 7.3535 0.906006 7.0535 0.906006C6.8035 0.906006 6.5435 0.906006 6.2935 0.916006C5.7435 0.936006 5.1835 0.966006 4.6435 1.06601C4.0835 1.16601 3.5735 1.32601 3.0735 1.58601C2.5735 1.83601 2.1235 2.16601 1.7335 2.55601C1.3435 2.94601 1.0135 3.39601 0.763496 3.89601C0.503496 4.39601 0.343496 4.90601 0.243496 5.46601C0.143496 6.01601 0.113496 6.56601 0.0934961 7.11601C0.0934961 7.36601 0.0834961 7.62601 0.0834961 7.87601C0.0834961 8.17601 0.0834961 8.47601 0.0834961 8.77601V18.196C0.0834961 18.496 0.0834961 18.796 0.0834961 19.096C0.0834961 19.346 0.0834961 19.606 0.0934961 19.856C0.103496 20.406 0.143496 20.966 0.243496 21.506C0.343496 22.056 0.503496 22.576 0.763496 23.076C1.0135 23.566 1.3435 24.026 1.7335 24.416C2.1235 24.806 2.5735 25.136 3.0735 25.386C3.5735 25.646 4.0835 25.816 4.6435 25.906C5.1935 26.006 5.7435 26.036 6.2935 26.056C6.5435 26.066 6.8035 26.066 7.0535 26.066C7.3535 26.066 7.6535 26.066 7.9535 26.066H17.3735C17.6735 26.066 17.9735 26.066 18.2735 26.066C18.5235 26.066 18.7835 26.066 19.0335 26.056C19.5835 26.046 20.1435 26.006 20.6835 25.906C21.2335 25.806 21.7535 25.646 22.2535 25.386C22.7435 25.136 23.2035 24.806 23.5935 24.416C23.9835 24.026 24.3135 23.576 24.5635 23.076C24.8235 22.576 24.9835 22.056 25.0835 21.506C25.1835 20.956 25.2135 20.406 25.2335 19.856C25.2435 19.606 25.2435 19.346 25.2435 19.096C25.2435 18.796 25.2435 18.496 25.2435 18.196V8.77601Z" fill="url(#paint0_linear_124_781)"/>
<path fill-rule="evenodd" clip-rule="evenodd" d="M17.8735 4.746C17.8135 4.756 17.2735 4.846 17.2035 4.856L9.7235 6.376C9.5235 6.416 9.3735 6.486 9.2535 6.586C9.1135 6.706 9.0335 6.876 9.0035 7.066C9.0035 7.116 8.9935 7.196 8.9935 7.326C8.9935 7.326 8.9935 14.966 8.9935 16.686C8.9935 16.906 8.9735 17.116 8.8235 17.296C8.6735 17.476 8.4935 17.536 8.2735 17.576C8.1135 17.606 7.9435 17.646 7.7835 17.676C7.1635 17.796 6.7635 17.886 6.4035 18.026C6.0535 18.166 5.7935 18.336 5.5835 18.546C5.1735 18.976 5.0035 19.566 5.0635 20.106C5.1135 20.576 5.3235 21.016 5.6835 21.356C5.9235 21.576 6.2335 21.746 6.5935 21.826C6.9635 21.906 7.3635 21.876 7.9435 21.756C8.2535 21.696 8.5435 21.596 8.8135 21.436C9.0835 21.276 9.3235 21.056 9.5035 20.796C9.6835 20.536 9.8035 20.246 9.8735 19.936C9.9435 19.616 9.9535 19.326 9.9535 19.006V10.886C9.9535 10.446 10.0735 10.336 10.4235 10.256C10.4235 10.256 16.6435 9.006 16.9335 8.946C17.3335 8.866 17.5335 8.986 17.5335 9.406V14.946C17.5335 15.166 17.5335 15.386 17.3835 15.566C17.2335 15.746 17.0535 15.806 16.8335 15.846C16.6735 15.876 16.5035 15.916 16.3435 15.946C15.7235 16.066 15.3235 16.156 14.9635 16.296C14.6135 16.436 14.3535 16.606 14.1435 16.816C13.7335 17.246 13.5535 17.836 13.6035 18.376C13.6535 18.846 13.8735 19.286 14.2435 19.626C14.4835 19.846 14.7935 20.016 15.1535 20.086C15.5235 20.166 15.9235 20.136 16.5035 20.016C16.8135 19.956 17.1035 19.866 17.3735 19.696C17.6435 19.536 17.8835 19.316 18.0635 19.056C18.2435 18.796 18.3635 18.506 18.4335 18.196C18.5035 17.876 18.5035 17.586 18.5035 17.266V5.416C18.5035 4.976 18.2735 4.716 17.8735 4.746Z" fill="white"/>
</g>
<defs>
<linearGradient id="paint0_linear_124_781" x1="12.6635" y1="25.9718" x2="12.6635" y2="1.4484" gradientUnits="userSpaceOnUse">
<stop stop-color="#FA233B"/>
<stop offset="1" stop-color="#FB5C74"/>
</linearGradient>
<clipPath id="clip0_124_781">
<rect width="125.1" height="27.78" fill="white" transform="translate(0.0834961 0.906006)"/>
</clipPath>
</defs>
</svg>
