<svg width="107" height="22" viewBox="0 0 107 22" fill="none" xmlns="http://www.w3.org/2000/svg">
<g clip-path="url(#clip0_115_212)">
<path d="M21.1995 7.62538H16.6616V10.2946H21.1995V7.62538Z" fill="#29AB70"/>
<path d="M21.1995 11.3427H16.6616V14.012H21.1995V11.3427Z" fill="url(#paint0_linear_115_212)"/>
<path d="M21.1995 15.0583H16.6616V17.7275H21.1995V15.0583Z" fill="url(#paint1_linear_115_212)"/>
<path d="M4.7494 18.7756H0.211494V21.4449H4.7494V18.7756Z" fill="url(#paint2_linear_115_212)"/>
<path d="M10.2322 18.7756H5.69426V21.4449H10.2322V18.7756Z" fill="url(#paint3_linear_115_212)"/>
<path d="M15.7167 18.7756H11.1788V21.4449H15.7167V18.7756Z" fill="url(#paint4_linear_115_212)"/>
<path d="M21.1995 18.7756H16.6616V21.4449H21.1995V18.7756Z" fill="url(#paint5_linear_115_212)"/>
<path d="M15.7167 15.0583H11.1788V17.7275H15.7167V15.0583Z" fill="url(#paint6_linear_115_212)"/>
<path d="M10.2322 15.0583H5.69426V17.7275H10.2322V15.0583Z" fill="url(#paint7_linear_115_212)"/>
<path d="M10.2322 11.3427H5.69426V14.012H10.2322V11.3427Z" fill="url(#paint8_linear_115_212)"/>
<path d="M61.4267 18.5435C59.4584 18.5435 57.8392 17.348 57.8099 15.248H67.1306C67.2527 14.6928 67.3141 14.1257 67.3134 13.557C67.3134 9.76406 64.7383 7.34354 60.9479 7.34354C56.8961 7.34354 54.1182 10.523 54.1182 14.4596C54.1182 18.8346 57.1282 21.7525 61.381 21.7525C64.5939 21.7525 66.8218 20.1185 67.7776 17.4346L64.6104 16.1875C64.1754 17.757 63.1044 18.5435 61.4267 18.5435ZM60.9351 10.348C62.5799 10.348 63.713 11.2525 63.713 12.6525L63.6838 12.7685H57.8099C58.1572 11.2525 59.431 10.348 60.9351 10.348Z" fill="white"/>
<path d="M80.1173 10.698V7.63461H68.1667V10.8436H75.4587L67.9346 18.2525V21.4596H80.3201V18.1051H72.5639L80.1173 10.698Z" fill="white"/>
<path d="M102.438 12.098C102.439 12.3303 102.423 12.5624 102.392 12.7925H105.903C105.988 12.3426 106.029 11.8854 106.025 11.4275C106.025 9.06406 104.55 7.34354 102.09 7.34354C100.499 7.34354 99.3709 8.13196 98.7915 9.41406V7.63643H95.0889V21.4522H98.7915V12.5641C98.7915 11.1641 99.5445 10.3775 100.701 10.3775C101.743 10.3775 102.438 11.0775 102.438 12.098Z" fill="white"/>
<path d="M35.7561 9.70696C34.9154 8.27748 33.3528 7.34354 31.4156 7.34354C27.6526 7.34354 24.9039 10.2614 24.9039 14.607C24.9039 18.8935 27.6251 21.7525 31.5015 21.7525C33.4405 21.7525 35.0031 20.9051 35.9005 19.4775V21.4596H39.4588V1.04354H35.7561V9.70696ZM32.2526 18.5822C30.1984 18.5822 28.5974 17.0662 28.5974 14.6162C28.5974 12.1367 30.1892 10.5635 32.2526 10.5635C34.2483 10.5635 35.8986 12.1385 35.8986 14.6162C35.8986 17.057 34.2483 18.5822 32.2526 18.5822Z" fill="white"/>
<path d="M87.8077 18.5435C85.8394 18.5435 84.2202 17.348 84.191 15.248H93.5116C93.6339 14.6928 93.6951 14.1257 93.6944 13.557C93.6944 9.76406 91.1193 7.34354 87.3289 7.34354C83.2772 7.34354 80.4992 10.523 80.4992 14.4596C80.4992 18.8346 83.5093 21.7525 87.7621 21.7525C90.975 21.7525 93.2028 20.1185 94.1586 17.4346L90.9896 16.1875C90.5564 17.757 89.4873 18.5435 87.8077 18.5435ZM87.3161 10.348C88.961 10.348 90.0941 11.2525 90.0941 12.6525L90.0648 12.7685H84.1873C84.5382 11.2525 85.8102 10.348 87.3161 10.348Z" fill="white"/>
<path d="M47.7507 18.5435C45.7824 18.5435 44.1632 17.348 44.1339 15.248H53.4546C53.5747 14.6926 53.6328 14.1254 53.6282 13.557C53.6282 9.76406 51.0532 7.34354 47.2627 7.34354C43.211 7.34354 40.4331 10.523 40.4331 14.4596C40.4331 18.8346 43.4431 21.7525 47.6959 21.7525C50.9088 21.7525 53.1366 20.1185 54.0924 17.4346L50.9344 16.1875C50.4994 17.757 49.4284 18.5435 47.7507 18.5435ZM47.2591 10.348C48.9039 10.348 50.037 11.2525 50.037 12.6525L50.0078 12.7685H44.1339C44.4812 11.2525 45.755 10.348 47.2591 10.348Z" fill="white"/>
</g>
<defs>
<linearGradient id="paint0_linear_115_212" x1="19.2257" y1="14.362" x2="18.6263" y2="10.9925" gradientUnits="userSpaceOnUse">
<stop stop-color="#2C8C9D"/>
<stop offset="0.04" stop-color="#298E9A"/>
<stop offset="0.39" stop-color="#129C83"/>
<stop offset="0.72" stop-color="#05A475"/>
<stop offset="1" stop-color="#00A770"/>
</linearGradient>
<linearGradient id="paint1_linear_115_212" x1="16.5939" y1="17.593" x2="21.2823" y2="15.2228" gradientUnits="userSpaceOnUse">
<stop stop-color="#2839BA"/>
<stop offset="1" stop-color="#148CB3"/>
</linearGradient>
<linearGradient id="paint2_linear_115_212" x1="0.211494" y1="20.1093" x2="4.7494" y2="20.1093" gradientUnits="userSpaceOnUse">
<stop stop-color="#F6A500"/>
<stop offset="1" stop-color="#F29100"/>
</linearGradient>
<linearGradient id="paint3_linear_115_212" x1="5.69426" y1="20.1093" x2="10.2322" y2="20.1093" gradientUnits="userSpaceOnUse">
<stop stop-color="#F29100"/>
<stop offset="1" stop-color="#D12F5F"/>
</linearGradient>
<linearGradient id="paint4_linear_115_212" x1="11.1788" y1="20.1093" x2="15.7167" y2="20.1093" gradientUnits="userSpaceOnUse">
<stop stop-color="#B4197C"/>
<stop offset="1" stop-color="#472EAD"/>
</linearGradient>
<linearGradient id="paint5_linear_115_212" x1="16.6616" y1="20.1093" x2="21.1995" y2="20.1093" gradientUnits="userSpaceOnUse">
<stop stop-color="#2839BA"/>
<stop offset="1" stop-color="#3072B7"/>
</linearGradient>
<linearGradient id="paint6_linear_115_212" x1="10.9997" y1="17.1141" x2="15.9" y2="15.6926" gradientUnits="userSpaceOnUse">
<stop stop-color="#B4197C"/>
<stop offset="1" stop-color="#373AAC"/>
</linearGradient>
<linearGradient id="paint7_linear_115_212" x1="5.53526" y1="15.5022" x2="10.4019" y2="17.2588" gradientUnits="userSpaceOnUse">
<stop stop-color="#FFCB00"/>
<stop offset="1" stop-color="#D12F5F"/>
</linearGradient>
<linearGradient id="paint8_linear_115_212" x1="6.07805" y1="10.9227" x2="9.87579" y2="14.4001" gradientUnits="userSpaceOnUse">
<stop stop-color="#FFCF00"/>
<stop offset="1" stop-color="#ED743B"/>
</linearGradient>
<clipPath id="clip0_115_212">
<rect width="106" height="21" fill="white" transform="translate(0.118332 0.89801)"/>
</clipPath>
</defs>
</svg>
