<svg width="90" height="28" viewBox="0 0 90 28" fill="none" xmlns="http://www.w3.org/2000/svg">
<g clip-path="url(#clip0_115_203)">
<path d="M13.5235 0.544518C6.07733 0.544518 0.0407333 6.57018 0.0407333 14.0031C0.0407333 21.4362 6.07733 27.4614 13.5235 27.4614C20.9705 27.4614 27.0064 21.4362 27.0064 14.0031C27.0064 6.57066 20.9705 0.54516 13.5233 0.54516L13.5235 0.544518ZM19.7066 19.9556C19.4651 20.3509 18.9467 20.4763 18.5506 20.2336C15.385 18.3034 11.3999 17.8663 6.70669 18.9367C6.25444 19.0395 5.80363 18.7567 5.70059 18.3051C5.59707 17.8534 5.8793 17.4034 6.33268 17.3006C11.4686 16.1293 15.8741 16.6336 19.4281 18.8017C19.8242 19.0443 19.9497 19.5602 19.7066 19.9556ZM21.3569 16.291C21.0526 16.7847 20.4054 16.9406 19.9111 16.6368C16.2869 14.4132 10.7625 13.7692 6.47581 15.0681C5.91987 15.2357 5.3327 14.923 5.16397 14.369C4.99653 13.8141 5.31 13.2291 5.86497 13.0603C10.7615 11.5772 16.8488 12.2956 21.0107 14.8486C21.505 15.1523 21.6612 15.7984 21.3569 16.2911V16.291ZM21.4986 12.475C17.1531 9.89857 9.98372 9.66168 5.83487 10.9186C5.16864 11.1203 4.4641 10.7449 4.2622 10.0799C4.0603 9.4145 4.43608 8.7117 5.10279 8.50952C9.86538 7.0663 17.7826 7.34514 22.7856 10.3098C23.3862 10.6649 23.5826 11.4374 23.2268 12.0348C22.8726 12.633 22.0965 12.8302 21.4992 12.475H21.4986ZM36.7229 12.9687C34.3948 12.4146 33.981 12.0256 33.981 11.2084C33.981 10.4363 34.7088 9.91673 35.7923 9.91673C36.842 9.91673 37.8821 10.3113 38.9737 11.1235C39.0059 11.1481 39.0478 11.1579 39.088 11.1515C39.1299 11.1454 39.1653 11.1231 39.1894 11.0895L40.3261 9.49004C40.3728 9.42414 40.3599 9.33334 40.2971 9.28304C38.9979 8.24273 37.536 7.73696 35.8261 7.73696C33.3129 7.73696 31.5563 9.2427 31.5563 11.3971C31.5563 13.7073 33.0714 14.5254 35.6893 15.1568C37.9159 15.669 38.2927 16.0981 38.2927 16.8651C38.2927 17.7152 37.5327 18.244 36.3091 18.244C34.9503 18.244 33.841 17.7859 32.6012 16.7156C32.5707 16.6883 32.5288 16.677 32.4902 16.6786C32.4483 16.6818 32.4113 16.7011 32.3855 16.7317L31.1104 18.2456C31.0572 18.3099 31.0637 18.4031 31.1249 18.4577C32.5674 19.7434 34.3417 20.4217 36.2576 20.4217C38.9657 20.4217 40.7158 18.9447 40.7158 16.6577C40.7206 14.728 39.563 13.6593 36.7277 12.9708L36.7229 12.9687ZM46.8435 10.6769C45.6698 10.6769 44.707 11.1385 43.9116 12.0843V11.0197C43.9116 10.9357 43.844 10.8672 43.7603 10.8672H41.6753C41.5916 10.8672 41.524 10.9357 41.524 11.0197V22.8484C41.524 22.932 41.5916 23.0011 41.6753 23.0011H43.7603C43.844 23.0011 43.9116 22.932 43.9116 22.8484V19.1151C44.707 20.0038 45.6698 20.4393 46.8435 20.4393C49.025 20.4393 51.234 18.7631 51.234 15.5586C51.2372 12.3535 49.0283 10.6767 46.8451 10.6767L46.8435 10.6769ZM48.8093 15.5586C48.8093 17.1897 47.803 18.3292 46.3605 18.3292C44.9356 18.3292 43.8601 17.1383 43.8601 15.5586C43.8601 13.9788 44.9356 12.7882 46.3605 12.7882C47.7789 12.7881 48.8093 13.9529 48.8093 15.5584V15.5586ZM56.8932 10.6769C54.0837 10.6769 51.8828 12.8363 51.8828 15.5935C51.8828 18.3211 54.0692 20.457 56.8594 20.457C59.6785 20.457 61.8859 18.3051 61.8859 15.5586C61.8859 12.8215 59.693 10.6772 56.8932 10.6772V10.6769ZM56.8932 18.3452C55.3991 18.3452 54.2721 17.1463 54.2721 15.5578C54.2721 13.9621 55.3605 12.8041 56.8594 12.8041C58.3631 12.8041 59.4966 14.0026 59.4966 15.5927C59.4966 17.1881 58.4018 18.3452 56.8932 18.3452ZM67.8848 10.8672H65.5905V8.52623C65.5905 8.44234 65.5229 8.37387 65.4392 8.37387H63.3542C63.2705 8.37387 63.2013 8.44234 63.2013 8.52623V10.8672H62.1998C62.1161 10.8672 62.0485 10.9357 62.0485 11.0197V12.808C62.0485 12.8919 62.1161 12.9605 62.1998 12.9605H63.2013V17.5883C63.2013 19.4574 64.1335 20.4056 65.9737 20.4056C66.7207 20.4056 67.3406 20.2513 67.925 19.9202C67.9734 19.8945 68.0023 19.8431 68.0023 19.7884V18.0849C68.0023 18.0334 67.975 17.9836 67.9299 17.9563C67.8848 17.9274 67.8284 17.9258 67.7818 17.9499C67.3809 18.1508 66.9928 18.244 66.5581 18.244C65.89 18.244 65.5905 17.9402 65.5905 17.262V12.9613H67.8848C67.9685 12.9613 68.0361 12.8928 68.0361 12.8088V11.0207C68.0394 10.9366 67.9717 10.8682 67.8864 10.8682L67.8848 10.8672ZM75.8769 10.8764V10.5888C75.8769 9.743 76.2021 9.3658 76.9299 9.3658C77.3646 9.3658 77.714 9.45195 78.1052 9.58212C78.1535 9.59723 78.2034 9.58968 78.242 9.56091C78.2823 9.53214 78.3048 9.48602 78.3048 9.43716V7.68377C78.3048 7.61675 78.263 7.55745 78.197 7.53768C77.7848 7.41505 77.2567 7.28921 76.4646 7.28921C74.5406 7.28921 73.5215 8.37146 73.5215 10.4178V10.8582H72.52C72.4363 10.8582 72.3671 10.9267 72.3671 11.0106V12.808C72.3671 12.8919 72.4363 12.9605 72.52 12.9605H73.5215V20.097C73.5215 20.1822 73.5907 20.2497 73.6744 20.2497H75.7578C75.8431 20.2497 75.9107 20.1822 75.9107 20.097V12.961H77.8572L80.839 20.097C80.5009 20.8459 80.1676 20.9954 79.7136 20.9954C79.3465 20.9954 78.9585 20.8861 78.564 20.6692C78.527 20.6499 78.4819 20.6467 78.4433 20.6579C78.403 20.6724 78.3692 20.7013 78.3531 20.7399L77.6463 22.2876C77.6125 22.3615 77.6415 22.4467 77.7123 22.4852C78.4497 22.8838 79.1147 23.0542 79.9374 23.0542C81.4766 23.0542 82.3283 22.3374 83.0769 20.412L86.693 11.0846C86.7123 11.0377 86.7059 10.9847 86.6769 10.9431C86.6496 10.9017 86.6029 10.8768 86.553 10.8768H84.3826C84.3166 10.8768 84.2587 10.9181 84.2377 10.9791L82.0143 17.3167L79.58 10.9749C79.5574 10.9159 79.5011 10.8768 79.4383 10.8768H75.8769V10.8764ZM71.2433 10.8672H69.1583C69.0746 10.8672 69.0054 10.9357 69.0054 11.0197V20.097C69.0054 20.1822 69.0746 20.2497 69.1583 20.2497H71.2433C71.327 20.2497 71.3962 20.1822 71.3962 20.097V11.0204C71.3962 10.9363 71.3286 10.8678 71.2433 10.8678V10.8672ZM70.2129 6.73379C69.3869 6.73379 68.7172 7.40107 68.7172 8.22537C68.7172 9.05016 69.3869 9.71825 70.2129 9.71825C71.0388 9.71825 71.707 9.05016 71.707 8.22537C71.707 7.40123 71.0372 6.73379 70.2129 6.73379ZM88.4737 13.7859C87.6494 13.7859 87.007 13.1246 87.007 12.3215C87.007 11.5184 87.6574 10.8495 88.4818 10.8495C89.3061 10.8495 89.9485 11.5107 89.9485 12.3131C89.9485 13.1162 89.298 13.7859 88.4737 13.7859ZM88.4818 10.9951C87.7299 10.9951 87.1615 11.5914 87.1615 12.3215C87.1615 13.0513 87.7267 13.6395 88.4737 13.6395C89.2256 13.6395 89.7939 13.0437 89.7939 12.3131C89.7939 11.5833 89.2288 10.9951 88.4818 10.9951ZM88.807 12.4637L89.2224 13.0436H88.8714L88.4978 12.5116H88.1775V13.0436H87.8844V11.5065H88.5703C88.9293 11.5065 89.1644 11.6892 89.1644 11.9969C89.166 12.2489 89.0195 12.4028 88.8086 12.4637H88.807ZM88.559 11.7702H88.1775V12.2564H88.559C88.749 12.2564 88.8633 12.1634 88.8633 12.0131C88.8633 11.8549 88.749 11.7702 88.559 11.7702Z" fill="#1ED760"/>
</g>
<defs>
<clipPath id="clip0_115_203">
<rect width="90" height="27" fill="white" transform="translate(0 0.5)"/>
</clipPath>
</defs>
</svg>
