<svg width="143" height="19" viewBox="0 0 143 19" fill="none" xmlns="http://www.w3.org/2000/svg">
<path d="M4.64752 0.177002L0 4.82452L4.64752 9.47205L9.29504 4.82452L4.64752 0.177002Z" fill="white"/>
<path d="M9.27588 4.83421L13.9196 9.47793L18.5633 4.83421L13.9196 0.190491L9.27588 4.83421Z" fill="white"/>
<path d="M9.27588 14.1216L13.9196 18.7653L18.5633 14.1216L13.9196 9.47791L9.27588 14.1216Z" fill="white"/>
<path d="M18.563 4.83421L23.2067 9.47793L27.8504 4.83421L23.2067 0.190491L18.563 4.83421Z" fill="white"/>
<path d="M40.5908 0.142822V3.90542H46.2585V18.6939H50.3307V3.90542H55.9746V0.142822H40.5908Z" fill="white"/>
<path d="M68.6679 0.142822H64.5957V18.6939H68.6679V0.142822Z" fill="white"/>
<path d="M85.8376 18.694H78.5981V0.142883H85.8376C91.672 0.142883 95.6966 4.14362 95.6966 9.35888V9.40651C95.6966 14.6456 91.672 18.694 85.8376 18.694ZM91.4339 9.40651C91.4339 6.12018 89.1715 3.81023 85.8376 3.81023H82.6941V15.0028H85.8376C89.1715 15.0028 91.4339 12.7405 91.4339 9.45413V9.40651Z" fill="white"/>
<path d="M117.129 18.694L115.438 14.5265H107.604L105.913 18.694H101.745L109.699 0H113.462L121.416 18.694H117.129ZM111.509 4.90568L109.032 10.9306H113.962L111.509 4.90568Z" fill="white"/>
<path d="M129.56 18.694V0.142883H133.632V14.979H142.896V18.694H129.56Z" fill="white"/>
</svg>
