<svg width="25" height="25" viewBox="0 0 25 25" fill="none" xmlns="http://www.w3.org/2000/svg">
<rect x="0.692596" y="0.0220947" width="24" height="24" rx="1.97077" fill="black"/>
<g clip-path="url(#clip0_117_303)">
<path d="M13.3493 5.76623C13.3493 5.38234 13.0553 5.07114 12.6926 5.07114C12.3299 5.07114 12.0359 5.38234 12.0359 5.76623V18.278C12.0359 18.6619 12.3299 18.9731 12.6926 18.9731C13.0553 18.9731 13.3493 18.6619 13.3493 18.278V5.76623Z" fill="white"/>
<path d="M10.066 7.75223C10.066 7.36833 9.77198 7.05713 9.40932 7.05713C9.04665 7.05713 8.75266 7.36833 8.75266 7.75223V16.292C8.75266 16.6759 9.04665 16.9871 9.40932 16.9871C9.77198 16.9871 10.066 16.6759 10.066 16.292V7.75223Z" fill="white"/>
<path d="M16.6326 7.75223C16.6326 7.36833 16.3386 7.05713 15.9759 7.05713C15.6133 7.05713 15.3193 7.36833 15.3193 7.75223V16.292C15.3193 16.6759 15.6133 16.9871 15.9759 16.9871C16.3386 16.9871 16.6326 16.6759 16.6326 16.292V7.75223Z" fill="white"/>
<path d="M7.4393 5.07114V18.9731C6.12598 18.9731 6.12598 18.1649 6.12598 17.7509V6.2994C6.12598 5.87928 6.12598 5.07114 7.4393 5.07114Z" fill="white"/>
<path d="M19.2593 6.30551V17.7509C19.2593 18.171 19.2593 18.9731 17.9459 18.9731V5.07114C19.2593 5.07725 19.2593 5.88539 19.2593 6.30551Z" fill="white"/>
</g>
<defs>
<clipPath id="clip0_117_303">
<rect width="13.1333" height="13.9019" fill="white" transform="translate(6.12598 5.07114)"/>
</clipPath>
</defs>
</svg>
