<svg width="91" height="28" viewBox="0 0 91 28" fill="none" xmlns="http://www.w3.org/2000/svg">
<g clip-path="url(#clip0_115_249)">
<path d="M13.9224 27.3637C21.5956 27.3637 27.8159 21.2454 27.8159 13.6981C27.8159 6.15087 21.5956 0.0325928 13.9224 0.0325928C6.24926 0.0325928 0.0289383 6.15087 0.0289383 13.6981C0.0289383 21.2454 6.24926 27.3637 13.9224 27.3637Z" fill="#FF0000"/>
<path d="M13.9224 21.8985C18.5143 21.8985 22.2367 18.2271 22.2367 13.6981C22.2367 9.16923 18.5143 5.49782 13.9224 5.49782C9.33056 5.49782 5.60813 9.16923 5.60813 13.6981C5.60813 18.2271 9.33056 21.8985 13.9224 21.8985Z" fill="#FF0000" stroke="white" strokeWidth="0.594585"/>
<path d="M11.0734 17.6819L18.362 13.6981L11.0734 9.70947V17.6819Z" fill="white"/>
<path d="M42.6112 10.9631C41.9274 14.263 41.4715 18.1377 41.2436 19.8422H41.0157C40.7878 18.1328 40.3319 14.263 39.6481 11.077L37.9387 3.10461H32.8203V24.6236H36.0063V6.86537L36.3482 8.5748L39.6481 24.6286H42.8341L46.0201 8.5748L46.2481 6.86537V24.5147H49.434V3.10957H44.2066C44.3206 3.10957 42.6112 10.9631 42.6112 10.9631Z" fill="white"/>
<path d="M58.1001 21.3287C57.9452 21.6227 57.7168 21.8716 57.4373 22.0513C57.1577 22.231 56.8364 22.3354 56.5046 22.3543C55.8209 22.3543 55.479 21.7845 55.479 20.417V8.91669H51.8371V20.5309C51.8371 23.375 52.8628 24.7426 55.0231 24.7426C56.5096 24.7426 57.6443 24.0588 58.551 22.5773H58.665L59.0069 24.5147H61.851V8.91669H58.1001V21.3039V21.3287Z" fill="white"/>
<path d="M68.8026 15.0657C67.663 14.268 66.8653 13.6981 66.8653 12.4446C66.8388 12.2588 66.8559 12.0694 66.9153 11.8914C66.9746 11.7134 67.0746 11.5517 67.2073 11.419C67.3399 11.2863 67.5017 11.1864 67.6797 11.127C67.8577 11.0676 68.0471 11.0505 68.2328 11.077C69.2585 11.077 69.6004 11.7608 69.6004 14.149L72.6724 14.0351C72.9003 10.2793 71.6467 8.68381 68.213 8.68381C65.141 8.68381 63.5455 10.0513 63.5455 12.7815C63.5455 15.2887 64.7991 16.4233 66.8454 18.0188C68.6688 19.3863 69.6896 20.0701 69.6896 21.2048C69.6934 21.3957 69.6566 21.5853 69.5816 21.7609C69.5066 21.9366 69.3952 22.0943 69.2546 22.2236C69.114 22.3529 68.9476 22.4509 68.7663 22.511C68.5851 22.5711 68.3931 22.592 68.2031 22.5723C67.0635 22.5723 66.4937 21.5467 66.6076 19.8372H63.5356C63.0797 23.1372 64.4473 24.9606 67.995 24.9606C71.181 24.9606 72.7765 23.593 72.7765 20.7489C73.0143 18.1575 71.6467 17.1121 68.8026 15.0657Z" fill="white"/>
<path d="M78.4795 8.91173H74.9517V24.5146H78.4795V8.91173Z" fill="white"/>
<path d="M76.7701 2.65372C75.4026 2.65372 74.8327 3.10956 74.8327 4.819C74.8327 6.52843 75.5165 6.98429 76.7701 6.98429C78.1377 6.98429 78.7075 6.52843 78.7075 4.819C78.7075 3.22353 78.1377 2.65372 76.7701 2.65372Z" fill="white"/>
<path d="M90.2077 18.9355L87.0217 18.8215C87.0217 21.5566 86.6799 22.4633 85.6542 22.4633C84.6285 22.4633 84.4006 21.4377 84.4006 18.2517V15.1846C84.4006 11.9986 84.6285 11.0869 85.6542 11.0869C86.6799 11.0869 86.9078 11.9986 86.9078 14.9567L90.0938 14.7288C90.3217 12.3356 89.9798 10.6311 89.0681 9.71939C88.3843 9.03562 87.2447 8.69373 85.7681 8.69373C82.2403 8.69373 80.7588 10.5171 80.7588 15.7544V17.9197C80.7588 23.271 82.0124 24.9804 85.6542 24.9804C87.1407 24.9804 88.2753 24.6385 88.9541 23.9548C89.8658 22.9291 90.2077 21.3336 90.2077 18.9454V18.9355Z" fill="white"/>
</g>
<defs>
<clipPath id="clip0_115_249">
<rect width="90.1788" height="27.3262" fill="white" transform="translate(0.0289383 0.0325928)"/>
</clipPath>
</defs>
</svg>
